<?xml version="1.0" encoding="UTF-8"?>
<svg width="440px" height="800px" viewBox="0 0 440 800" version="1.1" xmlns="http://www.w3.org/2000/svg" xmlns:xlink="http://www.w3.org/1999/xlink">
    <title>6 copy 7</title>
    <defs>
        <polygon id="path-1" points="0.0122674607 0.0145097707 32.814844 0.0145097707 32.814844 20.8693931 0.0122674607 20.8693931"></polygon>
        <polygon id="path-3" points="0.0122563643 0.122722693 34.7437287 0.122722693 34.7437287 46.6601907 0.0122563643 46.6601907"></polygon>
    </defs>
    <g id="6-copy-7" stroke="none" stroke-width="1" fill="none" fill-rule="evenodd">
        <rect fill="#111111" x="0" y="0" width="440" height="800"></rect>
        <g id="Group-3" transform="translate(100.000000, 683.000000)">
            <g id="Group">
                <path d="M165.870526,36.8134092 C166.809115,36.8134092 167.679026,36.6761854 168.480259,36.4017379 C169.281493,36.1272904 169.842357,35.8826742 170.16285,35.6678892 L170.16285,35.6678892 L169.613433,33.7348241 C169.292939,33.9257441 168.846538,34.1345629 168.274228,34.3612804 C167.701918,34.5879979 166.946469,34.7013567 166.007881,34.7013567 C165.458463,34.7013567 164.95483,34.6416941 164.496983,34.5223691 C164.039135,34.4030441 163.649964,34.1643941 163.32947,33.8064191 C163.008977,33.4484441 162.762884,32.9413129 162.591191,32.2850253 C162.419498,31.6287378 162.333651,30.7755641 162.333651,29.725504 L162.333651,29.725504 L162.333651,19.8811913 L169.407401,19.8811913 L169.407401,17.9123288 L162.333651,17.9123288 L162.333651,12.0415386 L160.101643,12.4711086 L160.101643,29.510719 C160.101643,30.7516991 160.193212,31.8256241 160.376351,32.7324941 C160.55949,33.6393641 160.874261,34.3970779 161.320663,35.0056354 C161.767064,35.6141929 162.362267,36.0676279 163.106269,36.3659404 C163.850272,36.6642529 164.771691,36.8134092 165.870526,36.8134092 Z M179.392703,36.8492067 C180.583107,36.8492067 181.670496,36.6165229 182.654869,36.1511554 C183.639242,35.6857879 184.491984,35.0354667 185.213095,34.2001916 C185.934205,33.3649166 186.495069,32.3506541 186.895686,31.1574041 C187.296303,29.964154 187.496611,28.6396465 187.496611,27.1838815 C187.496611,25.7281164 187.296303,24.4036089 186.895686,23.2103589 C186.495069,22.0171089 185.934205,20.9968801 185.213095,20.1496726 C184.491984,19.3024651 183.639242,18.6461775 182.654869,18.18081 C181.670496,17.7154425 180.583107,17.4827588 179.392703,17.4827588 C178.202298,17.4827588 177.11491,17.7154425 176.130537,18.18081 C175.146164,18.6461775 174.293422,19.3024651 173.572311,20.1496726 C172.851201,20.9968801 172.290337,22.0171089 171.88972,23.2103589 C171.489103,24.4036089 171.288795,25.7281164 171.288795,27.1838815 C171.288795,28.6396465 171.489103,29.964154 171.88972,31.1574041 C172.290337,32.3506541 172.851201,33.3649166 173.572311,34.2001916 C174.293422,35.0354667 175.146164,35.6857879 176.130537,36.1511554 C177.11491,36.6165229 178.202298,36.8492067 179.392703,36.8492067 Z M179.392703,34.7371542 C177.629988,34.7371542 176.233552,34.0570016 175.203395,32.6966966 C174.173237,31.3363916 173.658158,29.4987865 173.658158,27.1838815 C173.658158,24.8689764 174.173237,23.0254051 175.203395,21.6531676 C176.233552,20.2809301 177.629988,19.5948113 179.392703,19.5948113 C181.155417,19.5948113 182.551854,20.2809301 183.582011,21.6531676 C184.612169,23.0254051 185.127248,24.8689764 185.127248,27.1838815 C185.127248,29.4987865 184.612169,31.3363916 183.582011,32.6966966 C182.551854,34.0570016 181.155417,34.7371542 179.392703,34.7371542 Z M197.996991,36.7776117 C199.622351,36.7776117 200.995895,36.6582867 202.117623,36.4196367 C203.23935,36.1809867 204.132153,35.9662017 204.796033,35.7752817 L204.796033,35.7752817 L204.796033,17.9123288 L202.564024,17.9123288 L202.564024,34.1643941 C202.357993,34.2598541 201.865806,34.3672466 201.087465,34.4865716 C200.309123,34.6058966 199.393428,34.6655591 198.340377,34.6655591 C197.401789,34.6655591 196.606278,34.5402679 195.953845,34.2896854 C195.301412,34.0391029 194.769164,33.6333979 194.3571,33.0725704 C193.945037,32.5117429 193.647436,31.7778941 193.464297,30.8710241 C193.281158,29.964154 193.189588,28.8544315 193.189588,27.5418565 L193.189588,27.5418565 L193.189588,17.9123288 L190.95758,17.9123288 L190.95758,28.293604 C190.95758,29.558449 191.077765,30.7159016 191.318135,31.7659616 C191.558505,32.8160216 191.953399,33.7109591 192.502816,34.4507741 C193.052234,35.1905892 193.773344,35.7633492 194.666148,36.1690542 C195.558951,36.5747592 196.669232,36.7776117 197.996991,36.7776117 Z M216.875989,36.8134092 C217.837469,36.8134092 218.758888,36.7000504 219.640245,36.4733329 C220.521603,36.2466154 221.168313,36.0139317 221.580376,35.7752817 L221.580376,35.7752817 L221.099636,33.7706216 C220.802035,33.9376766 220.327017,34.1345629 219.674584,34.3612804 C219.022151,34.5879979 218.215194,34.7013567 217.253713,34.7013567 C216.086201,34.7013567 215.096105,34.5164029 214.283425,34.1464954 C213.470745,33.7765879 212.806865,33.2634904 212.291786,32.6072029 C211.776707,31.9509153 211.404706,31.1633703 211.175782,30.2445678 C210.946858,29.3257653 210.832396,28.317469 210.832396,27.219679 C210.832396,24.7854489 211.341752,22.9060801 212.360464,21.5815726 C213.379175,20.2570651 214.872904,19.5948113 216.84165,19.5948113 C217.803131,19.5948113 218.570026,19.6664063 219.142336,19.8095963 C219.714646,19.9527863 220.229725,20.1437063 220.687573,20.3823563 L220.687573,20.3823563 L221.271329,18.3776963 C220.813481,18.1151813 220.166771,17.9003963 219.331198,17.7333413 C218.495626,17.5662863 217.597099,17.4827588 216.635618,17.4827588 C215.376537,17.4827588 214.243363,17.7154425 213.236098,18.18081 C212.228832,18.6461775 211.370367,19.3084313 210.660703,20.1675713 C209.951039,21.0267113 209.407345,22.0529064 209.02962,23.2461564 C208.651895,24.4394064 208.463033,25.7639139 208.463033,27.219679 C208.463033,28.651579 208.646172,29.9581878 209.012451,31.1395053 C209.378729,32.3208228 209.910977,33.3350854 210.609195,34.1822929 C211.307413,35.0295004 212.183048,35.6798217 213.236098,36.1332567 C214.289148,36.5866917 215.502445,36.8134092 216.875989,36.8134092 Z M226.38055,36.4196367 L226.38055,20.4897488 C226.472119,20.4420188 226.672428,20.3704238 226.981475,20.2749638 C227.290523,20.1795038 227.639632,20.0900101 228.028802,20.0064826 C228.417973,19.9229551 228.835759,19.8453938 229.282161,19.7737988 C229.728563,19.7022038 230.146349,19.6664063 230.53552,19.6664063 C231.542785,19.6664063 232.378358,19.7916976 233.042237,20.0422801 C233.706116,20.2928626 234.238365,20.7045338 234.638982,21.2772938 C235.039599,21.8500539 235.325753,22.5898689 235.497446,23.4967389 C235.669139,24.4036089 235.754986,25.5133314 235.754986,26.8259065 L235.754986,26.8259065 L235.754986,36.4196367 L237.986994,36.4196367 L237.986994,26.074159 C237.986994,24.8093139 237.878256,23.6518614 237.660778,22.6018014 C237.4433,21.5517414 237.059852,20.6508376 236.510435,19.8990901 C235.961017,19.1473425 235.228461,18.5686163 234.312765,18.1629113 C233.397069,17.7572063 232.252449,17.5543538 230.878906,17.5543538 C230.123457,17.5543538 229.368007,17.631915 228.612558,17.7870375 C227.857109,17.94216 227.113106,18.1629113 226.38055,18.4492913 L226.38055,18.4492913 L226.38055,8.64077606 L224.148541,9.07034607 L224.148541,36.4196367 L226.38055,36.4196367 Z" id="touch" fill="#E95420" fill-rule="nonzero"></path>
                <g id="Group-4" transform="translate(146.627418, 17.415294) rotate(-270.000000) translate(-146.627418, -17.415294) translate(130.127418, 6.915294)">
                    <mask id="mask-2" fill="white">
                        <use xlink:href="#path-1"></use>
                    </mask>
                    <g id="Clip-2"></g>
                    <path d="M31.2611701,19.6559925 L31.2611701,19.3668744 C31.2611701,19.123384 31.249516,18.900149 30.9810631,18.900149 C30.7551374,18.900149 30.7203796,19.1033419 30.7203796,19.2903306 L30.7203796,19.6559925 L31.2611701,19.6559925 Z M30.5059035,19.9316781 L30.5059035,19.2457688 C30.5059035,18.8229656 30.6653805,18.6240369 30.9931261,18.6240369 C31.3002216,18.6240369 31.4288254,18.8272298 31.4562228,19.0911887 L32.2078092,18.5835263 L32.2078092,18.8801069 L31.4754418,19.3632497 L31.4754418,19.6559925 L32.2078092,19.6559925 L32.2078092,19.9316781 L30.5059035,19.9316781 Z M32.6005724,19.3385169 C32.6005724,18.6364034 32.0634621,18.0922813 31.3509271,18.0922813 C30.6539308,18.0922813 30.1164116,18.6364034 30.1164116,19.3385169 C30.1164116,20.0493722 30.6539308,20.5937075 31.3509271,20.5937075 C32.0634621,20.5937075 32.6005724,20.0493722 32.6005724,19.3385169 Z M29.9025489,19.3385169 C29.9025489,18.5103939 30.5290072,17.8161693 31.3509271,17.8161693 C32.1881812,17.8161693 32.814844,18.5103939 32.814844,19.3385169 C32.814844,20.1715438 32.1881812,20.8693931 31.3509271,20.8693931 C30.5290072,20.8693931 29.9025489,20.1715438 29.9025489,19.3385169 L29.9025489,19.3385169 Z" id="Fill-1" fill="#1A1919" mask="url(#mask-2)"></path>
                    <path d="M18.5344975,9.67864548 C18.5344975,15.015604 14.3854378,19.342568 9.26724874,19.342568 C4.14905967,19.342568 0,15.015604 0,9.67864548 C0,4.34126055 4.14905967,0.0145097707 9.26724874,0.0145097707 C14.3854378,0.0145097707 18.5344975,4.34126055 18.5344975,9.67864548" id="Fill-3" fill="#E95420" mask="url(#mask-2)"></path>
                </g>
                <path d="M151.079639,4.15330033 C151.671563,4.50944036 152.428343,4.29856797 152.769917,3.681926 C153.111695,3.06549704 152.909205,2.27738813 152.317281,1.92146111 C151.725152,1.56574709 150.968576,1.77704547 150.626594,2.39347444 C150.28502,3.00969041 150.487919,3.79758631 151.079639,4.15330033 Z M148.546471,12.4882975 C148.002408,12.4882975 147.486366,12.3622001 147.023708,12.1379086 L146.163637,13.7430947 C146.88176,14.1137189 147.690901,14.3228873 148.546471,14.3228873 C149.04431,14.3228873 149.525581,14.2508925 149.983126,14.119044 C150.063713,13.6012351 150.358857,13.1243227 150.829492,12.8410295 C151.299719,12.5585883 151.842964,12.530685 152.313599,12.7157841 C153.228894,11.7785735 153.8245,10.5039671 153.911223,9.08409306 L152.147108,9.05704176 C151.984911,10.9806665 150.435353,12.4882975 148.546471,12.4882975 Z M148.546471,4.95781043 C150.435353,4.95781043 151.984911,6.46586747 152.147517,8.38927921 L153.911223,8.36222791 C153.8245,6.94235386 153.228894,5.66774745 152.313599,4.73032385 C151.842964,4.91542295 151.29931,4.88709363 150.829492,4.60507844 C150.358857,4.32221124 150.063713,3.84508585 149.983126,3.32706399 C149.525581,3.19564151 149.04431,3.12364669 148.546471,3.12364669 C147.690901,3.12364669 146.88176,3.33302806 146.163637,3.70322625 L147.023708,5.30819939 C147.486366,5.08390785 148.002408,4.95781043 148.546471,4.95781043 Z M144.931109,8.72326699 C144.931109,7.44951259 145.538783,6.32400787 146.468395,5.64261317 L145.563531,4.06426533 C144.480518,4.81808085 143.674854,5.96999787 143.34003,7.31915512 C143.730692,7.65122587 143.980839,8.15668058 143.980839,8.72326699 C143.980839,9.28942739 143.730692,9.7948821 143.34003,10.1269529 C143.674445,11.4765361 144.480109,12.6284531 145.563531,13.3822686 L146.468395,11.8034948 C145.538783,11.1225261 144.931109,9.99723439 144.931109,8.72326699 Z M151.080048,13.2923816 C150.487919,13.6485217 150.28502,14.4364176 150.627003,15.0526335 C150.968576,15.6690625 151.725152,15.8805739 152.317281,15.5244339 C152.909205,15.1687198 153.112104,14.3808239 152.770326,13.764182 C152.428752,13.148179 151.671563,12.9366676 151.080048,13.2923816 Z M142.242699,7.43396341 C141.558734,7.43396341 141.004648,8.01098694 141.004648,8.72326699 C141.004648,9.43512103 141.558734,10.0121446 142.242699,10.0121446 C142.926256,10.0121446 143.480341,9.43512103 143.480341,8.72326699 C143.480341,8.01098694 142.926256,7.43396341 142.242699,7.43396341 L142.242699,7.43396341 Z" id="Fill-5" fill="#FFFFFE" transform="translate(147.457936, 8.723069) rotate(-270.000000) translate(-147.457936, -8.723069) "></path>
                <g id="Group-9" transform="translate(24.033097, 18.457385) rotate(-270.000000) translate(-24.033097, -18.457385) translate(6.533097, -5.042615)">
                    <mask id="mask-4" fill="white">
                        <use xlink:href="#path-3"></use>
                    </mask>
                    <g id="Clip-7"></g>
                    <path d="M33.5534315,27.3458546 C33.7889579,28.3274231 34.0385792,29.6221901 34.3029082,31.2316471 C34.5676456,32.8413172 34.6996058,34.7036766 34.6996058,36.8191517 C34.6996058,38.6582876 34.4420179,40.2068094 33.9284762,41.4634386 C33.414526,42.7211332 32.6867023,43.7327431 31.745822,44.4986947 C30.8055546,45.2652854 29.6955365,45.8171114 28.4169935,46.1541727 C27.1384504,46.4920862 25.7207976,46.6601907 24.1624009,46.6601907 L11.2885201,46.6601907 L11.2885201,42.3834327 L23.2805555,42.3834327 C26.0733723,42.3834327 28.0719768,41.9236487 29.2765732,41.0036546 C30.4823951,40.0840867 31.0845912,38.5362041 31.0845912,36.3591546 C31.0845912,35.8993707 31.0698835,35.4244594 31.0400597,34.9335686 C31.0112572,34.4435301 30.9740796,33.9837461 30.9299567,33.5540036 C30.8858338,33.1251134 30.8419151,32.7341479 30.7979965,32.3813201 C30.7538736,32.0293446 30.7030097,31.7764421 30.6437706,31.6226126 L11.2885201,31.6226126 L11.2885201,27.3458546 L33.5534315,27.3458546" id="Fill-6" fill="#FFFFFF" mask="url(#mask-4)"></path>
                    <path d="M30.6437706,16.9073947 C30.7614317,16.4787175 30.8715347,15.8729873 30.9740796,15.0910562 C31.0774416,14.3093382 31.1287141,13.3365052 31.1287141,12.1710657 C31.1287141,9.87171971 30.4008903,8.03215767 28.9462641,6.65280573 C27.4910251,5.27324073 25.4264406,4.5833517 22.7512848,4.5833517 C21.5765123,4.5833517 20.4740523,4.70628746 19.444722,4.95109366 C18.4162087,5.19717823 17.5270095,5.59496168 16.7775328,6.14678768 C16.0278519,6.69861368 15.4401592,7.41151322 15.0136377,8.28527323 C14.5881376,9.15903323 14.3746726,10.2094202 14.3746726,11.4353687 C14.3746726,12.6008082 14.5660762,13.6735665 14.9476576,14.6540697 C15.3300562,15.6358512 15.7271624,16.3866755 16.1379549,16.9073947 L30.6437706,16.9073947 Z M12.3023257,16.9073947 C11.9793705,16.3866755 11.6410948,15.5970743 11.2885201,14.5392302 C10.9357411,13.4815992 10.7594537,12.2631077 10.7594537,10.8835427 C10.7594537,9.16691646 11.0534022,7.64140521 11.6410948,6.30764816 C12.2294003,4.97431723 13.0520066,3.84765472 14.1103437,2.9278737 C15.1682722,2.00809268 16.4325162,1.31117267 17.9020543,0.835622228 C19.3717966,0.360284852 20.9880025,0.122722693 22.7512848,0.122722693 C24.6032214,0.122722693 26.2719254,0.406518922 27.7559669,0.973259138 C29.2402126,1.54085159 30.4966942,2.34579315 31.5252075,3.38765768 C32.5545378,4.43037446 33.3479331,5.68679064 33.9062105,7.15861072 C34.4642836,8.63021774 34.7437287,10.2854827 34.7437287,12.1250447 C34.7437287,14.1182232 34.6115643,15.8808705 34.3470311,17.4134127 C34.0824979,18.9468072 33.8181689,20.2036495 33.5534315,21.1843658 L0.706579402,21.1843658 L0.00142990917,16.9073947 L12.3023257,16.9073947 L12.3023257,16.9073947 Z" id="Fill-8" fill="#FFFFFF" mask="url(#mask-4)"></path>
                </g>
                <path d="M70.942887,14.7953661 C71.1871196,15.7379335 71.445968,16.9817297 71.7200677,18.5275731 C71.9945911,20.0736211 72.1314292,21.862371 72.1314292,23.8940275 C72.1314292,25.660881 71.8643196,27.147993 71.3317951,28.3551588 C70.798847,29.5629384 70.0441195,30.5347693 69.0684601,31.2700374 C68.0934361,32.006738 66.9423867,32.5365485 65.6165828,32.8602874 C64.290779,33.1846403 62.8207233,33.3461005 61.2047211,33.3461005 L47.8549631,33.3461005 L47.8549631,29.2385855 L60.2902787,29.2385855 C63.1863308,29.2385855 65.2588128,28.7967698 66.5079365,27.9133431 C67.7583312,27.0301209 68.3827871,25.5434182 68.3827871,23.4522118 C68.3827871,23.0106007 68.3675358,22.5546649 68.3366096,22.0831765 C68.3067424,21.6125067 68.2681905,21.1708957 68.2224366,20.7579341 C68.1766827,20.3462003 68.1311407,19.9706876 68.0855986,19.6316007 C68.0398447,19.293537 67.9871006,19.0506305 67.9256718,18.9030857 L47.8549631,18.9030857 L47.8549631,14.7953661 L70.942887,14.7953661" id="Fill-10" fill="#FFFFFF" transform="translate(59.993196, 24.070733) rotate(-270.000000) translate(-59.993196, -24.070733) "></path>
                <path d="M73.499859,32.9543698 C73.2543992,32.0102175 72.9933716,30.7564061 72.7172028,29.1919104 C72.4412471,27.6282349 72.3030561,25.8283163 72.3030561,23.7923596 C72.3030561,21.9627056 72.5719742,20.4435308 73.1085309,19.2329896 C73.6457273,18.0234739 74.3970346,17.0573788 75.3639456,16.3340892 C76.3306433,15.6114148 77.489273,15.1024256 78.839195,14.8067115 C80.1895435,14.5124329 81.6778699,14.3641657 83.3039607,14.3641657 L96.7441084,14.3641657 L96.7441084,18.4809899 L84.2241682,18.4809899 C82.751623,18.4809899 81.4936151,18.5769637 80.4503578,18.7685011 C79.4073138,18.9606538 78.5632394,19.2770802 77.9187743,19.7200361 C77.2740959,20.162787 76.8064215,20.7531898 76.5146848,21.4904243 C76.2231613,22.2286842 76.077293,23.1435112 76.077293,24.2344953 C76.077293,24.6774512 76.0932873,25.1353774 76.1233567,25.6068384 C76.1542791,26.0791196 76.1926655,26.5294581 76.2387291,26.9568286 C76.2845796,27.3850193 76.3387471,27.7689145 76.3997388,28.1074886 C76.4615836,28.4470882 76.5076473,28.6907139 76.5377166,28.8379558 L96.7441084,28.8379558 L96.7441084,32.9543698 L73.499859,32.9543698" id="Fill-11" fill="#FFFFFF" transform="translate(84.523582, 23.659268) rotate(-270.000000) translate(-84.523582, -23.659268) "></path>
                <path d="M97.525106,23.0436013 L97.525106,14.5429711 L101.096286,14.5429711 L101.096286,23.0436013 L112.084319,23.0436013 C113.274783,23.0436013 114.259271,22.9576354 115.037357,22.7847039 C115.81608,22.6121723 116.426586,22.353275 116.868873,22.0080118 C117.311797,21.6629486 117.624686,21.2313197 117.807541,20.7137249 C117.990607,20.1959302 118.082459,19.5917697 118.082459,18.9014433 C118.082459,17.6649335 117.937787,16.6863214 117.647384,15.9670066 C117.357617,15.2486913 117.15164,14.7588855 117.029454,14.500188 L120.508995,13.6371302 C120.72282,14.0401704 120.997738,14.7522881 121.332901,15.7730834 C121.668488,16.7944785 121.836493,17.9518198 121.836493,19.2467065 C121.836493,20.771502 121.630729,22.0296033 121.218564,23.0222098 C120.806398,24.0146164 120.188469,24.8128999 119.36435,25.4168605 C118.54002,26.021021 117.525622,26.4458526 116.319249,26.6897559 C115.114148,26.9346588 113.717919,27.0568104 112.130139,27.0568104 L90.8861268,27.0568104 L90.1536478,23.0436013 L97.525106,23.0436013" id="Fill-12" fill="#FFFFFF" transform="translate(105.995071, 20.346970) rotate(-270.000000) translate(-105.995071, -20.346970) "></path>
                <path d="M136.161776,14.8579244 C136.407664,15.8028866 136.668268,17.0493016 136.944226,18.5981948 C137.22061,20.147293 137.358376,21.9398092 137.358376,23.9759485 C137.358376,25.7463172 137.089455,27.2367654 136.553321,28.4462679 C136.016759,29.6567956 135.256915,30.6304677 134.274641,31.3676941 C133.293007,32.1055356 132.134154,32.6366668 130.799361,32.9610874 C129.464569,33.2863283 127.984547,33.4481285 126.357589,33.4481285 L112.917324,33.4481285 L112.917324,29.3315547 L125.436946,29.3315547 C128.352633,29.3315547 130.439166,28.8888088 131.696758,28.003727 C132.95563,27.1186452 133.584319,25.6290172 133.584319,23.5334076 C133.584319,23.0908667 133.568965,22.6337659 133.537829,22.1612847 C133.507759,21.689829 133.468946,21.2468779 133.422882,20.833457 C133.376818,20.4204461 133.330967,20.0443479 133.285116,19.7047521 C133.239052,19.3659766 133.18595,19.1223535 133.124105,18.9747031 L112.917324,18.9747031 L112.917324,14.8579244 L136.161776,14.8579244" id="Fill-13" fill="#FFFFFF" transform="translate(125.137850, 24.153026) rotate(-270.000000) translate(-125.137850, -24.153026) "></path>
            </g>
            <path d="M2.07552392,56.0746888 L2.07552392,51.9045643 L3.56227757,51.9045643 C4.31092657,51.9045643 4.98312902,51.844917 5.57888492,51.7256224 C6.17464082,51.6063278 6.67813363,51.4144191 7.08936337,51.1498963 C7.5005931,50.8853734 7.81692366,50.5378631 8.03835506,50.1073651 C8.25978645,49.6768672 8.37050215,49.1556017 8.37050215,48.5435685 C8.37050215,47.4751037 7.99090547,46.6504149 7.23171212,46.0695021 C6.47251876,45.4885892 5.3179122,45.1981328 3.76789244,45.1981328 C3.32502965,45.1981328 2.84789771,45.221473 2.33649663,45.2681535 C1.82509556,45.314834 1.37959668,45.3900415 1,45.4937759 L1,45.4937759 L1,56.0746888 L2.07552392,56.0746888 Z M3.43574535,50.9865145 L2.07552392,50.9865145 L2.07552392,46.2251037 C2.27586661,46.2043568 2.51575062,46.1810166 2.79517595,46.155083 C3.07460129,46.1291494 3.41465664,46.1161826 3.81534202,46.1161826 C4.24766046,46.1161826 4.66943455,46.1524896 5.08066428,46.2251037 C5.49189402,46.2977178 5.85831025,46.4247925 6.17991299,46.6063278 C6.50151573,46.7878631 6.75985236,47.0342324 6.95492288,47.3454357 C7.14999339,47.656639 7.24752865,48.0508299 7.24752865,48.5280083 C7.24752865,49.0259336 7.15790165,49.4356846 6.97864767,49.7572614 C6.79939368,50.0788382 6.54369314,50.3303942 6.21154605,50.5119295 C5.87939896,50.6934647 5.47871357,50.8179461 5.0094899,50.8853734 C4.54026623,50.9528008 4.01568471,50.9865145 3.43574535,50.9865145 L3.43574535,50.9865145 Z M13.8588375,56.2614108 C14.4071438,56.2614108 14.9080005,56.1602697 15.3614077,55.9579876 C15.8148148,55.7557054 16.2075919,55.473029 16.539739,55.1099585 C16.8718861,54.746888 17.1302227,54.3060166 17.3147489,53.7873444 C17.4992751,53.2686722 17.5915381,52.6929461 17.5915381,52.060166 C17.5915381,51.4273859 17.4992751,50.8516598 17.3147489,50.3329876 C17.1302227,49.8143154 16.8718861,49.3708506 16.539739,49.0025934 C16.2075919,48.6343361 15.8148148,48.3490664 15.3614077,48.1467842 C14.9080005,47.9445021 14.4071438,47.843361 13.8588375,47.843361 C13.3105312,47.843361 12.8096744,47.9445021 12.3562673,48.1467842 C11.9028601,48.3490664 11.510083,48.6343361 11.1779359,49.0025934 C10.8457888,49.3708506 10.5874522,49.8143154 10.4029261,50.3329876 C10.2183999,50.8516598 10.1261368,51.4273859 10.1261368,52.060166 C10.1261368,52.6929461 10.2183999,53.2686722 10.4029261,53.7873444 C10.5874522,54.3060166 10.8457888,54.746888 11.1779359,55.1099585 C11.510083,55.473029 11.9028601,55.7557054 12.3562673,55.9579876 C12.8096744,56.1602697 13.3105312,56.2614108 13.8588375,56.2614108 Z M13.8588375,55.343361 C13.0469224,55.343361 12.4037169,55.0477178 11.929221,54.4564315 C11.4547252,53.8651452 11.2174773,53.06639 11.2174773,52.060166 C11.2174773,51.0539419 11.4547252,50.2525934 11.929221,49.6561203 C12.4037169,49.0596473 13.0469224,48.7614108 13.8588375,48.7614108 C14.6707526,48.7614108 15.3139581,49.0596473 15.7884539,49.6561203 C16.2629498,50.2525934 16.5001977,51.0539419 16.5001977,52.060166 C16.5001977,53.06639 16.2629498,53.8651452 15.7884539,54.4564315 C15.3139581,55.0477178 14.6707526,55.343361 13.8588375,55.343361 Z M23.0007908,56.0746888 C23.1589561,55.7116183 23.3250296,55.3044606 23.4990115,54.8532158 C23.6729933,54.401971 23.8522472,53.9196058 24.0367734,53.4061203 C24.2212996,52.8926349 24.4005536,52.3532158 24.5745354,51.7878631 C24.7485172,51.2225104 24.9145907,50.6441909 25.072756,50.0529046 C25.2309213,50.6441909 25.3969948,51.2225104 25.5709766,51.7878631 C25.7449585,52.3532158 25.9242124,52.8926349 26.1087386,53.4061203 C26.2932648,53.9196058 26.4725188,54.401971 26.6465006,54.8532158 C26.8204824,55.3044606 26.9865559,55.7116183 27.1447212,56.0746888 L27.1447212,56.0746888 L28.1095294,56.0746888 C28.6472914,54.9024896 29.1402398,53.6628631 29.5883748,52.3558091 C30.0365098,51.0487552 30.4503756,49.6068465 30.8299723,48.030083 L30.8299723,48.030083 L29.8177145,48.030083 C29.7017266,48.5798755 29.5567418,49.1737552 29.3827599,49.811722 C29.2087781,50.4496888 29.0216159,51.0824689 28.8212732,51.7100622 C28.6209305,52.3376556 28.4205878,52.9341286 28.2202451,53.4994813 C28.0199024,54.064834 27.8301041,54.5446058 27.6508501,54.9387967 C27.4399631,54.4201245 27.2317121,53.8651452 27.0260972,53.2738589 C26.8204824,52.6825726 26.6254119,52.0835062 26.4408857,51.4766598 C26.2563595,50.8698133 26.0876499,50.2733402 25.9347568,49.6872407 C25.7818637,49.1011411 25.6579676,48.5487552 25.5630684,48.030083 L25.5630684,48.030083 L24.6773428,48.030083 C24.5613549,48.5487552 24.4242784,49.1011411 24.2661131,49.6872407 C24.1079478,50.2733402 23.9392382,50.8672199 23.7599842,51.4688797 C23.5807302,52.0705394 23.3882958,52.6670124 23.1826809,53.2582988 C22.977066,53.8495851 22.7740872,54.4045643 22.5737445,54.9232365 C22.3944906,54.5290456 22.2020561,54.0518672 21.9964413,53.4917012 C21.7908264,52.9315353 21.5878476,52.3376556 21.3875049,51.7100622 C21.1871622,51.0824689 21,50.4496888 20.8260182,49.811722 C20.6520364,49.1737552 20.5070515,48.5798755 20.3910637,48.030083 L20.3910637,48.030083 L19.2997232,48.030083 C19.6793199,49.6068465 20.0931857,51.0487552 20.5413207,52.3558091 C20.9894556,53.6628631 21.4824041,54.9024896 22.0201661,56.0746888 L22.0201661,56.0746888 L23.0007908,56.0746888 Z M36.5555555,56.2458506 C37.1038618,56.2458506 37.5809938,56.1887967 37.9869513,56.0746888 C38.3929089,55.9605809 38.6696981,55.8620332 38.8173191,55.7790456 L38.8173191,55.7790456 L38.6275207,54.9076763 C38.4798998,54.9802905 38.2426519,55.0684647 37.915777,55.1721992 C37.588902,55.2759336 37.1460392,55.3278008 36.5871886,55.3278008 C35.5749308,55.3278008 34.8368261,55.063278 34.3728746,54.5342324 C33.9089231,54.0051867 33.6611309,53.2479253 33.6294978,52.2624481 L33.6294978,52.2624481 L39.3708975,52.2624481 C39.3814419,52.189834 39.3893502,52.1120332 39.3946223,52.0290456 C39.3998945,51.9460581 39.4025306,51.8630705 39.4025306,51.780083 C39.4025306,50.4419087 39.1046527,49.4512448 38.5088968,48.8080913 C37.9131409,48.1649378 37.1144062,47.843361 36.1126927,47.843361 C35.6592856,47.843361 35.2190589,47.9289419 34.7920126,48.1001037 C34.3649664,48.2712656 33.9853697,48.533195 33.6532226,48.8858921 C33.3210755,49.2385892 33.0521945,49.6768672 32.8465797,50.2007261 C32.6409648,50.7245851 32.5381574,51.3392116 32.5381574,52.0446058 C32.5381574,52.656639 32.6119678,53.2193983 32.7595888,53.7328838 C32.9072097,54.2463693 33.1444576,54.689834 33.4713325,55.063278 C33.7982074,55.436722 34.2147093,55.7271784 34.7208383,55.9346473 C35.2269672,56.1421162 35.8385396,56.2458506 36.5555555,56.2458506 Z M38.3428232,51.406639 L33.6611309,51.406639 C33.6822196,51.0539419 33.7533939,50.716805 33.874654,50.3952282 C33.995914,50.0736515 34.1646237,49.7909751 34.3807829,49.5471992 C34.5969421,49.3034232 34.8500066,49.1089212 35.1399762,48.9636929 C35.4299459,48.8184647 35.7594569,48.7458506 36.1285093,48.7458506 C36.8244365,48.7458506 37.3621985,48.9792531 37.7417951,49.4460581 C38.1213918,49.9128631 38.3217345,50.56639 38.3428232,51.406639 L38.3428232,51.406639 Z M43.1984974,56.0746888 L43.1984974,49.0259336 C43.2828522,48.9844398 43.4594701,48.9325726 43.7283511,48.870332 C43.9972321,48.8080913 44.353104,48.776971 44.7959668,48.776971 C45.2177408,48.776971 45.5577962,48.8003112 45.8161328,48.8469917 C46.0744695,48.8936722 46.2458152,48.9377593 46.33017,48.9792531 L46.33017,48.9792531 L46.5357849,48.1078838 C46.419797,48.0560166 46.211546,48.0041494 45.911032,47.9522822 C45.610518,47.9004149 45.2915513,47.8744813 44.954132,47.8744813 C44.2898379,47.8744813 43.725715,47.9341286 43.2617635,48.0534232 C42.797812,48.1727178 42.4340319,48.2894191 42.1704231,48.403527 L42.1704231,48.403527 L42.1704231,56.0746888 L43.1984974,56.0746888 Z M52.0873863,56.2458506 C52.6356926,56.2458506 53.1128245,56.1887967 53.5187821,56.0746888 C53.9247397,55.9605809 54.2015289,55.8620332 54.3491498,55.7790456 L54.3491498,55.7790456 L54.1593515,54.9076763 C54.0117306,54.9802905 53.7744826,55.0684647 53.4476077,55.1721992 C53.1207328,55.2759336 52.67787,55.3278008 52.1190193,55.3278008 C51.1067615,55.3278008 50.3686569,55.063278 49.9047054,54.5342324 C49.4407539,54.0051867 49.1929616,53.2479253 49.1613286,52.2624481 L49.1613286,52.2624481 L54.9027283,52.2624481 C54.9132727,52.189834 54.9211809,52.1120332 54.9264531,52.0290456 C54.9317253,51.9460581 54.9343614,51.8630705 54.9343614,51.780083 C54.9343614,50.4419087 54.6364834,49.4512448 54.0407275,48.8080913 C53.4449716,48.1649378 52.646237,47.843361 51.6445235,47.843361 C51.1911164,47.843361 50.7508897,47.9289419 50.3238434,48.1001037 C49.8967971,48.2712656 49.5172005,48.533195 49.1850534,48.8858921 C48.8529063,49.2385892 48.5840253,49.6768672 48.3784104,50.2007261 C48.1727956,50.7245851 48.0699881,51.3392116 48.0699881,52.0446058 C48.0699881,52.656639 48.1437986,53.2193983 48.2914195,53.7328838 C48.4390404,54.2463693 48.6762884,54.689834 49.0031633,55.063278 C49.3300382,55.436722 49.7465401,55.7271784 50.252669,55.9346473 C50.7587979,56.1421162 51.3703703,56.2458506 52.0873863,56.2458506 Z M53.874654,51.406639 L49.1929616,51.406639 C49.2140503,51.0539419 49.2852247,50.716805 49.4064848,50.3952282 C49.5277448,50.0736515 49.6964544,49.7909751 49.9126137,49.5471992 C50.1287729,49.3034232 50.3818373,49.1089212 50.671807,48.9636929 C50.9617767,48.8184647 51.2912877,48.7458506 51.66034,48.7458506 C52.3562673,48.7458506 52.8940292,48.9792531 53.2736259,49.4460581 C53.6532226,49.9128631 53.8535653,50.56639 53.874654,51.406639 L53.874654,51.406639 Z M61.2293396,56.2614108 C61.9568999,56.2614108 62.557928,56.2147303 63.0324238,56.1213693 C63.5069197,56.0280083 63.8970607,55.9294606 64.2028469,55.8257261 L64.2028469,55.8257261 L64.2028469,44 L63.1747726,44.186722 L63.1747726,48.5124481 C62.9955186,48.3775934 62.708185,48.2349585 62.3127718,48.0845436 C61.9173586,47.9341286 61.450771,47.8589212 60.9130091,47.8589212 C60.3225253,47.8589212 59.7979438,47.9626556 59.3392645,48.1701245 C58.8805852,48.3775934 58.4930802,48.6680498 58.1767497,49.0414938 C57.8604191,49.4149378 57.6205351,49.8584025 57.4570977,50.371888 C57.2936602,50.8853734 57.2119415,51.4481328 57.2119415,52.060166 C57.2119415,52.7136929 57.3094767,53.2997925 57.5045472,53.8184647 C57.6996178,54.3371369 57.9737709,54.7780083 58.3270067,55.1410788 C58.6802425,55.5041494 59.1020166,55.781639 59.592329,55.9735477 C60.0826413,56.1654564 60.6283116,56.2614108 61.2293396,56.2614108 Z M61.2451562,55.343361 C60.3594306,55.343361 59.6476868,55.0606846 59.1099249,54.495332 C58.5721629,53.9299793 58.3032819,53.1182573 58.3032819,52.060166 C58.3032819,51.6141079 58.3507315,51.19139 58.4456307,50.7920124 C58.5405298,50.3926349 58.6934229,50.0451245 58.90431,49.7494813 C59.115197,49.4538382 59.3919863,49.2178423 59.7346777,49.0414938 C60.0773692,48.8651452 60.5017793,48.776971 61.0079082,48.776971 C61.2504283,48.776971 61.4824041,48.8003112 61.7038355,48.8469917 C61.9252669,48.8936722 62.1308817,48.9533195 62.3206801,49.0259336 C62.5104784,49.0985477 62.676552,49.1763485 62.8189007,49.2593361 C62.9612495,49.3423237 63.0798734,49.4201245 63.1747726,49.4927386 L63.1747726,49.4927386 L63.1747726,55.1255187 C63.0166073,55.1773859 62.7819955,55.2266598 62.4709371,55.2733402 C62.1598787,55.3200207 61.7512851,55.343361 61.2451562,55.343361 Z M74.4519573,56.2614108 C75.0529854,56.2614108 75.5986556,56.1654564 76.088968,55.9735477 C76.5792803,55.781639 77.0010544,55.5041494 77.3542902,55.1410788 C77.707526,54.7780083 77.9816792,54.3371369 78.1767497,53.8184647 C78.3718202,53.2997925 78.4693554,52.7136929 78.4693554,52.060166 C78.4693554,51.4481328 78.3876367,50.8853734 78.2241993,50.371888 C78.0607618,49.8584025 77.8208778,49.4149378 77.5045472,49.0414938 C77.1882167,48.6680498 76.8007117,48.3775934 76.3420324,48.1701245 C75.8833531,47.9626556 75.3587716,47.8589212 74.7682878,47.8589212 C74.2305259,47.8589212 73.7639383,47.9341286 73.3685251,48.0845436 C72.9731119,48.2349585 72.6857783,48.3775934 72.5065243,48.5124481 L72.5065243,48.5124481 L72.5065243,44 L71.47845,44.186722 L71.47845,55.8257261 C71.7842362,55.9294606 72.1743772,56.0280083 72.6488731,56.1213693 C73.1233689,56.2147303 73.724397,56.2614108 74.4519573,56.2614108 Z M74.4361408,55.343361 C73.9300118,55.343361 73.5214182,55.3200207 73.2103598,55.2733402 C72.8993014,55.2266598 72.6646896,55.1773859 72.5065243,55.1255187 L72.5065243,55.1255187 L72.5065243,49.4927386 C72.6014235,49.4201245 72.7200474,49.3423237 72.8623962,49.2593361 C73.0047449,49.1763485 73.1708185,49.0985477 73.3606168,49.0259336 C73.5504152,48.9533195 73.75603,48.8936722 73.9774614,48.8469917 C74.1988928,48.8003112 74.4308686,48.776971 74.6733887,48.776971 C75.1795176,48.776971 75.6039278,48.8651452 75.9466192,49.0414938 C76.2893106,49.2178423 76.5660999,49.4538382 76.7769869,49.7494813 C76.987874,50.0451245 77.1407671,50.3926349 77.2356662,50.7920124 C77.3305654,51.19139 77.378015,51.6141079 77.378015,52.060166 C77.378015,53.1182573 77.109134,53.9299793 76.5713721,54.495332 C76.0336101,55.0606846 75.3218663,55.343361 74.4361408,55.343361 Z M80.9525504,59 C81.4165019,59 81.8198234,58.9481328 82.1625148,58.8443983 C82.5052063,58.7406639 82.8057203,58.5798755 83.0640569,58.3620332 C83.3223936,58.1441909 83.5570054,57.8667012 83.7678924,57.5295643 C83.9787795,57.1924274 84.1843943,56.7904564 84.384737,56.3236515 C84.8908659,55.1410788 85.3600896,53.8392116 85.792408,52.4180498 C86.2247265,50.996888 86.6095953,49.5342324 86.9470146,48.030083 L86.9470146,48.030083 L85.9189403,48.030083 C85.760775,48.7147303 85.610518,49.3526971 85.4681692,49.9439834 C85.3258205,50.5352697 85.1781995,51.1135892 85.0253064,51.6789419 C84.8724133,52.2442946 84.7063398,52.8122407 84.5270858,53.3827801 C84.3478318,53.9533195 84.1422169,54.560166 83.9102412,55.2033195 C83.5939106,54.5809129 83.2986688,53.9481328 83.0245156,53.3049793 C82.7503624,52.6618257 82.4999341,52.0342324 82.2732305,51.4221992 C82.0465269,50.810166 81.8435482,50.2162863 81.6642942,49.6405602 C81.4850402,49.064834 81.3374193,48.5280083 81.2214314,48.030083 L81.2214314,48.030083 L80.1300909,48.030083 C80.2988006,48.7043568 80.4991433,49.3915975 80.731119,50.091805 C80.9630948,50.7920124 81.2187953,51.4922199 81.4982206,52.1924274 C81.777646,52.8926349 82.07816,53.5850622 82.3997627,54.2697095 C82.7213655,54.9543568 83.0561487,55.6130705 83.4041123,56.2458506 C83.2564914,56.6089212 83.1062343,56.909751 82.9533412,57.1483402 C82.8004481,57.3869295 82.6291024,57.5814315 82.4393041,57.7318465 C82.2495057,57.8822614 82.0359826,57.9885892 81.7987347,58.0508299 C81.5614867,58.1130705 81.2952419,58.1441909 81,58.1441909 C80.7891129,58.1441909 80.5861342,58.1156639 80.3910637,58.05861 C80.1959931,58.001556 80.0773692,57.9574689 80.0351918,57.9263485 L80.0351918,57.9263485 L79.8295769,58.7665975 C79.8822987,58.7977178 80.0167392,58.8443983 80.2328984,58.906639 C80.4490576,58.9688797 80.6889416,59 80.9525504,59 Z M97.2435745,56.3080913 C97.9711348,56.3080913 98.5906155,56.1991701 99.1020166,55.9813278 C99.6134177,55.7634855 100.027283,55.4626556 100.343614,55.0788382 C100.659945,54.6950207 100.889284,54.2463693 101.031633,53.7328838 C101.173982,53.2193983 101.245156,52.6670124 101.245156,52.0757261 L101.245156,52.0757261 L101.245156,45.2914938 L100.169632,45.2914938 L100.169632,51.9356846 C100.169632,52.526971 100.098458,53.0378631 99.9561091,53.468361 C99.8137604,53.8988589 99.6160538,54.2541494 99.3629893,54.5342324 C99.1099249,54.8143154 98.8041386,55.0217842 98.4456307,55.156639 C98.0871227,55.2914938 97.6864373,55.3589212 97.2435745,55.3589212 C96.8007117,55.3589212 96.4000264,55.2914938 96.0415184,55.156639 C95.6830104,55.0217842 95.3772242,54.8143154 95.1241597,54.5342324 C94.8710953,54.2541494 94.6733887,53.8988589 94.5310399,53.468361 C94.3886912,53.0378631 94.3175168,52.526971 94.3175168,51.9356846 L94.3175168,51.9356846 L94.3175168,45.2914938 L93.2419929,45.2914938 L93.2419929,52.0757261 C93.2419929,52.6670124 93.3131673,53.2193983 93.455516,53.7328838 C93.5978648,54.2463693 93.8272044,54.6950207 94.143535,55.0788382 C94.4598656,55.4626556 94.8737314,55.7634855 95.3851325,55.9813278 C95.8965335,56.1991701 96.5160142,56.3080913 97.2435745,56.3080913 Z M107.144721,56.1680498 C108.863451,56.1680498 110.134045,55.9009336 110.956505,55.3667012 C111.778964,54.8324689 112.190194,54.0570539 112.190194,53.0404564 C112.190194,52.6151452 112.134836,52.2494813 112.02412,51.9434647 C111.913404,51.6374481 111.757875,51.378112 111.557533,51.1654564 C111.35719,50.9528008 111.125214,50.7790456 110.861605,50.6441909 C110.597997,50.5093361 110.308027,50.4056017 109.991696,50.3329876 C110.497825,50.1773859 110.901147,49.8947095 111.201661,49.4849585 C111.502175,49.0752075 111.652432,48.5798755 111.652432,47.9989627 C111.652432,47.469917 111.533808,47.0264523 111.29656,46.6685685 C111.059312,46.3106846 110.740345,46.0228216 110.33966,45.8049793 C109.938975,45.5871369 109.472387,45.4315353 108.939897,45.3381743 C108.407407,45.2448133 107.845921,45.1981328 107.255437,45.1981328 C107.055094,45.1981328 106.836299,45.2033195 106.599051,45.2136929 C106.361803,45.2240664 106.119283,45.2422199 105.871491,45.2681535 C105.623698,45.2940871 105.383814,45.3252075 105.151839,45.3615145 C104.919863,45.3978216 104.708976,45.4419087 104.519178,45.4937759 L104.519178,45.4937759 L104.519178,55.8724066 C104.677343,55.9139004 104.867141,55.9528008 105.088573,55.9891079 C105.310004,56.0254149 105.544616,56.0565353 105.792408,56.0824689 C106.0402,56.1084025 106.28272,56.1291494 106.519968,56.1447095 C106.757216,56.1602697 106.965467,56.1680498 107.144721,56.1680498 Z M107.682483,50.0062241 L105.594701,50.0062241 L105.594701,46.2095436 C105.773955,46.1784232 105.998023,46.1524896 106.266904,46.1317427 C106.535785,46.1109959 106.865296,46.1006224 107.255437,46.1006224 C107.740477,46.1006224 108.18334,46.1343361 108.584025,46.2017635 C108.984711,46.2691909 109.330038,46.3807054 109.620008,46.5363071 C109.909978,46.6919087 110.134045,46.8915975 110.29221,47.1353734 C110.450376,47.3791494 110.529458,47.6773859 110.529458,48.030083 C110.529458,48.4242739 110.455648,48.748444 110.308027,49.0025934 C110.160406,49.2567427 109.957427,49.4590249 109.699091,49.6094398 C109.440754,49.7598548 109.137604,49.8635892 108.78964,49.9206432 C108.441677,49.9776971 108.072624,50.0062241 107.682483,50.0062241 L107.682483,50.0062241 Z M107.271253,55.2655602 C106.944379,55.2655602 106.622776,55.2525934 106.306445,55.2266598 C105.990115,55.2007261 105.752867,55.1773859 105.594701,55.156639 L105.594701,55.156639 L105.594701,50.9087137 L107.872282,50.9087137 C108.357322,50.9087137 108.797548,50.939834 109.192962,51.0020747 C109.588375,51.0643154 109.923158,51.1758299 110.197311,51.3366183 C110.471464,51.4974066 110.682351,51.715249 110.829972,51.9901452 C110.977593,52.2650415 111.051404,52.6099585 111.051404,53.0248963 C111.051404,53.4813278 110.94596,53.8547718 110.735073,54.1452282 C110.524186,54.4356846 110.244761,54.6639004 109.896797,54.8298755 C109.548834,54.9958506 109.145512,55.1099585 108.686833,55.1721992 C108.228153,55.2344398 107.756294,55.2655602 107.271253,55.2655602 Z M115.922894,58.9533195 L115.922894,55.6078838 C116.102148,55.7427386 116.389482,55.8853734 116.784895,56.0357884 C117.180308,56.1862033 117.646896,56.2614108 118.184658,56.2614108 C118.775142,56.2614108 119.299723,56.1576763 119.758403,55.9502075 C120.217082,55.7427386 120.604587,55.4548755 120.920917,55.0866183 C121.237248,54.718361 121.477132,54.2774896 121.640569,53.7640041 C121.804007,53.2505187 121.885726,52.6877593 121.885726,52.0757261 C121.885726,51.4221992 121.78819,50.8360996 121.59312,50.3174274 C121.398049,49.7987552 121.123896,49.3578838 120.77066,48.9948133 C120.417425,48.6317427 119.99565,48.3542531 119.505338,48.1623444 C119.015026,47.9704357 118.469355,47.8744813 117.868327,47.8744813 C117.140767,47.8744813 116.539739,47.9211618 116.065243,48.0145228 C115.590747,48.1078838 115.200606,48.2064315 114.89482,48.310166 L114.89482,48.310166 L114.89482,58.9533195 L115.922894,58.9533195 Z M118.089759,55.343361 C117.847239,55.343361 117.615263,55.3200207 117.393832,55.2733402 C117.1724,55.2266598 116.966785,55.1670124 116.776987,55.0943983 C116.587189,55.0217842 116.421115,54.9439834 116.278766,54.8609959 C116.136418,54.7780083 116.017794,54.7002075 115.922894,54.6275934 L115.922894,54.6275934 L115.922894,49.0103734 C116.08106,48.9585062 116.315672,48.9092324 116.62673,48.8625519 C116.937788,48.8158714 117.346382,48.7925311 117.852511,48.7925311 C118.738236,48.7925311 119.44998,49.0752075 119.987742,49.6405602 C120.525504,50.2059129 120.794385,51.0176349 120.794385,52.0757261 C120.794385,52.5217842 120.746936,52.9445021 120.652036,53.3438797 C120.557137,53.7432573 120.404244,54.0907676 120.193357,54.3864108 C119.98247,54.6820539 119.705681,54.9154564 119.362989,55.0866183 C119.020298,55.2577801 118.595888,55.343361 118.089759,55.343361 Z M127.83274,56.2614108 C128.381047,56.2614108 128.881903,56.1602697 129.33531,55.9579876 C129.788718,55.7557054 130.181495,55.473029 130.513642,55.1099585 C130.845789,54.746888 131.104125,54.3060166 131.288652,53.7873444 C131.473178,53.2686722 131.565441,52.6929461 131.565441,52.060166 C131.565441,51.4273859 131.473178,50.8516598 131.288652,50.3329876 C131.104125,49.8143154 130.845789,49.3708506 130.513642,49.0025934 C130.181495,48.6343361 129.788718,48.3490664 129.33531,48.1467842 C128.881903,47.9445021 128.381047,47.843361 127.83274,47.843361 C127.284434,47.843361 126.783577,47.9445021 126.33017,48.1467842 C125.876763,48.3490664 125.483986,48.6343361 125.151839,49.0025934 C124.819692,49.3708506 124.561355,49.8143154 124.376829,50.3329876 C124.192303,50.8516598 124.10004,51.4273859 124.10004,52.060166 C124.10004,52.6929461 124.192303,53.2686722 124.376829,53.7873444 C124.561355,54.3060166 124.819692,54.746888 125.151839,55.1099585 C125.483986,55.473029 125.876763,55.7557054 126.33017,55.9579876 C126.783577,56.1602697 127.284434,56.2614108 127.83274,56.2614108 Z M127.83274,55.343361 C127.020825,55.343361 126.37762,55.0477178 125.903124,54.4564315 C125.428628,53.8651452 125.19138,53.06639 125.19138,52.060166 C125.19138,51.0539419 125.428628,50.2525934 125.903124,49.6561203 C126.37762,49.0596473 127.020825,48.7614108 127.83274,48.7614108 C128.644655,48.7614108 129.287861,49.0596473 129.762357,49.6561203 C130.236852,50.2525934 130.4741,51.0539419 130.4741,52.060166 C130.4741,53.06639 130.236852,53.8651452 129.762357,54.4564315 C129.287861,55.0477178 128.644655,55.343361 127.83274,55.343361 Z M135.298142,56.0746888 L135.298142,49.0259336 C135.382496,48.9844398 135.559114,48.9325726 135.827995,48.870332 C136.096876,48.8080913 136.452748,48.776971 136.895611,48.776971 C137.317385,48.776971 137.65744,48.8003112 137.915777,48.8469917 C138.174114,48.8936722 138.345459,48.9377593 138.429814,48.9792531 L138.429814,48.9792531 L138.635429,48.1078838 C138.519441,48.0560166 138.31119,48.0041494 138.010676,47.9522822 C137.710162,47.9004149 137.391195,47.8744813 137.053776,47.8744813 C136.389482,47.8744813 135.825359,47.9341286 135.361408,48.0534232 C134.897456,48.1727178 134.533676,48.2894191 134.270067,48.403527 L134.270067,48.403527 L134.270067,56.0746888 L135.298142,56.0746888 Z M143.253855,56.2458506 C143.686174,56.2458506 144.086859,56.1862033 144.455911,56.0669087 C144.824964,55.9476141 145.0833,55.8412863 145.230921,55.7479253 L145.230921,55.7479253 L144.977857,54.9076763 C144.830236,54.9906639 144.624621,55.0814315 144.361012,55.1799793 C144.097403,55.278527 143.74944,55.3278008 143.317121,55.3278008 C143.064057,55.3278008 142.832081,55.3018672 142.621194,55.25 C142.410307,55.1981328 142.231053,55.0943983 142.083432,54.9387967 C141.935811,54.783195 141.822459,54.5627593 141.743377,54.2774896 C141.664294,53.9922199 141.624753,53.6213693 141.624753,53.1649378 L141.624753,53.1649378 L141.624753,48.8858921 L144.882958,48.8858921 L144.882958,48.030083 L141.624753,48.030083 L141.624753,45.4782158 L140.596679,45.6649378 L140.596679,53.0715768 C140.596679,53.6109959 140.638856,54.0778008 140.723211,54.4719917 C140.807566,54.8661826 140.95255,55.1955394 141.158165,55.4600622 C141.36378,55.7245851 141.637933,55.9216805 141.980625,56.0513485 C142.323316,56.1810166 142.747726,56.2458506 143.253855,56.2458506 Z M148.931989,56.2614108 C149.891525,56.2614108 150.648082,56.0746888 151.201661,55.7012448 C151.755239,55.3278008 152.032028,54.7780083 152.032028,54.0518672 C152.032028,53.6680498 151.96349,53.3490664 151.826414,53.094917 C151.689337,52.8407676 151.510083,52.6229253 151.288652,52.44139 C151.06722,52.2598548 150.81152,52.1042531 150.52155,51.9745851 C150.23158,51.844917 149.92843,51.7178423 149.6121,51.593361 C149.306313,51.4688797 149.034796,51.3547718 148.797548,51.2510373 C148.560301,51.1473029 148.359958,51.0357884 148.19652,50.9164938 C148.033083,50.7971992 147.909187,50.659751 147.824832,50.5041494 C147.740477,50.3485477 147.6983,50.1618257 147.6983,49.9439834 C147.6983,49.7261411 147.745749,49.5420124 147.840648,49.3915975 C147.935548,49.2411826 148.06208,49.1167012 148.220245,49.0181535 C148.37841,48.9196058 148.560301,48.8469917 148.765915,48.8003112 C148.97153,48.7536307 149.190326,48.7302905 149.422301,48.7302905 C150.002241,48.7302905 150.442467,48.7821577 150.742981,48.8858921 C151.043495,48.9896266 151.257019,49.0726141 151.383551,49.1348548 L151.383551,49.1348548 L151.620799,48.2323651 C151.473178,48.159751 151.217477,48.0767635 150.853697,47.9834025 C150.489917,47.8900415 150.028602,47.843361 149.469751,47.843361 C148.59457,47.843361 147.906551,48.0456432 147.405694,48.4502075 C146.904837,48.8547718 146.654409,49.3838174 146.654409,50.0373444 C146.654409,50.379668 146.717675,50.6701245 146.844207,50.9087137 C146.970739,51.1473029 147.139449,51.3521784 147.350336,51.5233402 C147.561223,51.6945021 147.803743,51.844917 148.077896,51.9745851 C148.35205,52.1042531 148.642019,52.2313278 148.947805,52.3558091 C149.327402,52.5114108 149.646369,52.6462656 149.904705,52.7603734 C150.163042,52.8744813 150.371293,52.9937759 150.529458,53.1182573 C150.687624,53.2427386 150.800975,53.3827801 150.869514,53.5383817 C150.938052,53.6939834 150.972321,53.8807054 150.972321,54.0985477 C150.972321,54.5549793 150.779887,54.8791494 150.395018,55.0710581 C150.010149,55.2629668 149.522473,55.3589212 148.931989,55.3589212 C148.605114,55.3589212 148.31778,55.3381743 148.069988,55.2966805 C147.822196,55.2551867 147.608673,55.2059129 147.429419,55.1488589 C147.250165,55.091805 147.107816,55.0399378 147.002372,54.9932573 C146.896929,54.9465768 146.828391,54.9128631 146.796758,54.8921162 L146.796758,54.8921162 L146.527877,55.810166 C146.654409,55.8724066 146.907473,55.9631743 147.28707,56.0824689 C147.666667,56.2017635 148.214973,56.2614108 148.931989,56.2614108 Z M159.718861,56.0746888 L159.718861,50.9242739 L164.305654,50.9242739 L164.305654,50.0062241 L159.718861,50.0062241 L159.718861,46.2095436 L164.890866,46.2095436 L164.890866,45.2914938 L158.643337,45.2914938 L158.643337,56.0746888 L159.718861,56.0746888 Z M170.52155,56.2614108 C171.069856,56.2614108 171.570713,56.1602697 172.02412,55.9579876 C172.477527,55.7557054 172.870304,55.473029 173.202452,55.1099585 C173.534599,54.746888 173.792935,54.3060166 173.977461,53.7873444 C174.161988,53.2686722 174.254251,52.6929461 174.254251,52.060166 C174.254251,51.4273859 174.161988,50.8516598 173.977461,50.3329876 C173.792935,49.8143154 173.534599,49.3708506 173.202452,49.0025934 C172.870304,48.6343361 172.477527,48.3490664 172.02412,48.1467842 C171.570713,47.9445021 171.069856,47.843361 170.52155,47.843361 C169.973244,47.843361 169.472387,47.9445021 169.01898,48.1467842 C168.565573,48.3490664 168.172796,48.6343361 167.840648,49.0025934 C167.508501,49.3708506 167.250165,49.8143154 167.065639,50.3329876 C166.881112,50.8516598 166.788849,51.4273859 166.788849,52.060166 C166.788849,52.6929461 166.881112,53.2686722 167.065639,53.7873444 C167.250165,54.3060166 167.508501,54.746888 167.840648,55.1099585 C168.172796,55.473029 168.565573,55.7557054 169.01898,55.9579876 C169.472387,56.1602697 169.973244,56.2614108 170.52155,56.2614108 Z M170.52155,55.343361 C169.709635,55.343361 169.066429,55.0477178 168.591934,54.4564315 C168.117438,53.8651452 167.88019,53.06639 167.88019,52.060166 C167.88019,51.0539419 168.117438,50.2525934 168.591934,49.6561203 C169.066429,49.0596473 169.709635,48.7614108 170.52155,48.7614108 C171.333465,48.7614108 171.976671,49.0596473 172.451166,49.6561203 C172.925662,50.2525934 173.16291,51.0539419 173.16291,52.060166 C173.16291,53.06639 172.925662,53.8651452 172.451166,54.4564315 C171.976671,55.0477178 171.333465,55.343361 170.52155,55.343361 Z M180.106366,56.2302905 C180.855015,56.2302905 181.487676,56.1784232 182.00435,56.0746888 C182.521023,55.9709544 182.932253,55.8775934 183.238039,55.7946058 L183.238039,55.7946058 L183.238039,48.030083 L182.209964,48.030083 L182.209964,55.0943983 C182.115065,55.1358921 181.888362,55.1825726 181.529854,55.2344398 C181.171346,55.2863071 180.749572,55.3122407 180.264531,55.3122407 C179.832213,55.3122407 179.465797,55.2577801 179.165283,55.1488589 C178.864769,55.0399378 178.619613,54.8635892 178.429814,54.6198133 C178.240016,54.3760373 178.102939,54.0570539 178.018584,53.6628631 C177.93423,53.2686722 177.892052,52.7863071 177.892052,52.2157676 L177.892052,52.2157676 L177.892052,48.030083 L176.863978,48.030083 L176.863978,52.5425311 C176.863978,53.0923237 176.919336,53.5954357 177.030051,54.0518672 C177.140767,54.5082988 177.322657,54.8973029 177.575722,55.2188797 C177.828786,55.5404564 178.160933,55.7894191 178.572163,55.9657676 C178.983393,56.1421162 179.494794,56.2302905 180.106366,56.2302905 Z M187.461052,56.0746888 L187.461052,49.0103734 C187.566495,48.9688797 187.795835,48.9221992 188.149071,48.870332 C188.502307,48.8184647 188.921445,48.7925311 189.406485,48.7925311 C189.859892,48.7925311 190.236853,48.8469917 190.537367,48.9559129 C190.837881,49.064834 191.080401,49.2437759 191.264927,49.4927386 C191.449453,49.7417012 191.581257,50.063278 191.66034,50.4574689 C191.739423,50.8516598 191.778964,51.3340249 191.778964,51.9045643 L191.778964,51.9045643 L191.778964,56.0746888 L192.807038,56.0746888 L192.807038,51.5778008 C192.807038,51.0280083 192.754317,50.5248963 192.648873,50.0684647 C192.54343,49.6120332 192.366812,49.2204357 192.119019,48.8936722 C191.871227,48.5669087 191.53908,48.3153527 191.122578,48.1390041 C190.706076,47.9626556 190.186767,47.8744813 189.56465,47.8744813 C188.816001,47.8744813 188.18334,47.9263485 187.666667,48.030083 C187.149993,48.1338174 186.738764,48.2271784 186.432977,48.310166 L186.432977,48.310166 L186.432977,56.0746888 L187.461052,56.0746888 Z M199.434164,56.2614108 C200.161724,56.2614108 200.762752,56.2147303 201.237248,56.1213693 C201.711744,56.0280083 202.101885,55.9294606 202.407671,55.8257261 L202.407671,55.8257261 L202.407671,44 L201.379597,44.186722 L201.379597,48.5124481 C201.200343,48.3775934 200.913009,48.2349585 200.517596,48.0845436 C200.122183,47.9341286 199.655595,47.8589212 199.117833,47.8589212 C198.527349,47.8589212 198.002768,47.9626556 197.544089,48.1701245 C197.085409,48.3775934 196.697904,48.6680498 196.381574,49.0414938 C196.065243,49.4149378 195.825359,49.8584025 195.661922,50.371888 C195.498484,50.8853734 195.416766,51.4481328 195.416766,52.060166 C195.416766,52.7136929 195.514301,53.2997925 195.709371,53.8184647 C195.904442,54.3371369 196.178595,54.7780083 196.531831,55.1410788 C196.885067,55.5041494 197.306841,55.781639 197.797153,55.9735477 C198.287465,56.1654564 198.833136,56.2614108 199.434164,56.2614108 Z M199.44998,55.343361 C198.564255,55.343361 197.852511,55.0606846 197.314749,54.495332 C196.776987,53.9299793 196.508106,53.1182573 196.508106,52.060166 C196.508106,51.6141079 196.555556,51.19139 196.650455,50.7920124 C196.745354,50.3926349 196.898247,50.0451245 197.109134,49.7494813 C197.320021,49.4538382 197.59681,49.2178423 197.939502,49.0414938 C198.282193,48.8651452 198.706603,48.776971 199.212732,48.776971 C199.455252,48.776971 199.687228,48.8003112 199.90866,48.8469917 C200.130091,48.8936722 200.335706,48.9533195 200.525504,49.0259336 C200.715302,49.0985477 200.881376,49.1763485 201.023725,49.2593361 C201.166074,49.3423237 201.284697,49.4201245 201.379597,49.4927386 L201.379597,49.4927386 L201.379597,55.1255187 C201.221431,55.1773859 200.98682,55.2266598 200.675761,55.2733402 C200.364703,55.3200207 199.956109,55.343361 199.44998,55.343361 Z M208.006722,56.2458506 C208.344141,56.2458506 208.673652,56.2328838 208.995255,56.2069502 C209.316858,56.1810166 209.609464,56.1473029 209.873072,56.1058091 C210.136681,56.0643154 210.368657,56.0254149 210.569,55.9891079 C210.769342,55.9528008 210.922235,55.9190871 211.027679,55.8879668 L211.027679,55.8879668 L211.027679,50.8153527 C211.027679,50.3900415 210.974957,49.9958506 210.869514,49.6327801 C210.76407,49.2697095 210.59536,48.9559129 210.363385,48.69139 C210.131409,48.4268672 209.828259,48.2193983 209.453934,48.0689834 C209.07961,47.9185685 208.623567,47.843361 208.085805,47.843361 C207.558587,47.843361 207.107816,47.879668 206.733491,47.9522822 C206.359167,48.0248963 206.082378,48.1026971 205.903124,48.1856846 L205.903124,48.1856846 L206.045473,49.0726141 C206.182549,49.0207469 206.398708,48.9533195 206.69395,48.870332 C206.989192,48.7873444 207.437327,48.7458506 208.038355,48.7458506 C208.460129,48.7458506 208.800185,48.8106846 209.058521,48.9403527 C209.316858,49.0700207 209.5172,49.2411826 209.659549,49.4538382 C209.801898,49.6664938 209.894161,49.905083 209.936338,50.1696058 C209.978516,50.4341286 209.999605,50.7064315 209.999605,50.9865145 L209.999605,50.9865145 L209.999605,51.4844398 C209.957427,51.4636929 209.880981,51.4403527 209.770265,51.4144191 C209.659549,51.3884855 209.527745,51.3625519 209.374852,51.3366183 C209.221959,51.3106846 209.063793,51.2899378 208.900356,51.2743776 C208.736918,51.2588174 208.581389,51.2510373 208.433768,51.2510373 C207.938184,51.2510373 207.479504,51.2977178 207.05773,51.3910788 C206.635956,51.4844398 206.272176,51.6322614 205.96639,51.8345436 C205.660604,52.0368257 205.423356,52.2935685 205.254646,52.6047718 C205.085936,52.9159751 205.001582,53.2894191 205.001582,53.7251037 C205.001582,54.1815353 205.078028,54.5679461 205.230921,54.8843361 C205.383814,55.2007261 205.594701,55.4600622 205.863582,55.6623444 C206.132463,55.8646266 206.448794,56.0124481 206.812574,56.1058091 C207.176354,56.1991701 207.574404,56.2458506 208.006722,56.2458506 Z M208.180704,55.343361 C207.853829,55.343361 207.561223,55.314834 207.302887,55.2577801 C207.04455,55.2007261 206.823118,55.1099585 206.638592,54.9854772 C206.454066,54.8609959 206.311717,54.6950207 206.211546,54.4875519 C206.111375,54.280083 206.061289,54.0259336 206.061289,53.7251037 C206.061289,53.3827801 206.1351,53.1078838 206.28272,52.9004149 C206.430341,52.6929461 206.62014,52.5295643 206.852115,52.4102697 C207.084091,52.2909751 207.337156,52.2131743 207.611309,52.1768672 C207.885462,52.1405602 208.149071,52.1224066 208.402135,52.1224066 C208.844998,52.1224066 209.192962,52.1509336 209.446026,52.2079876 C209.699091,52.2650415 209.883617,52.3195021 209.999605,52.3713693 L209.999605,52.3713693 L209.999605,55.2033195 C209.788718,55.2448133 209.533017,55.278527 209.232503,55.3044606 C208.931989,55.3303942 208.581389,55.343361 208.180704,55.343361 Z M216.721629,56.2458506 C217.153948,56.2458506 217.554633,56.1862033 217.923685,56.0669087 C218.292738,55.9476141 218.551074,55.8412863 218.698695,55.7479253 L218.698695,55.7479253 L218.445631,54.9076763 C218.29801,54.9906639 218.092395,55.0814315 217.828786,55.1799793 C217.565177,55.278527 217.217214,55.3278008 216.784895,55.3278008 C216.531831,55.3278008 216.299855,55.3018672 216.088968,55.25 C215.878081,55.1981328 215.698827,55.0943983 215.551206,54.9387967 C215.403585,54.783195 215.290233,54.5627593 215.211151,54.2774896 C215.132068,53.9922199 215.092527,53.6213693 215.092527,53.1649378 L215.092527,53.1649378 L215.092527,48.8858921 L218.350732,48.8858921 L218.350732,48.030083 L215.092527,48.030083 L215.092527,45.4782158 L214.064452,45.6649378 L214.064452,53.0715768 C214.064452,53.6109959 214.10663,54.0778008 214.190985,54.4719917 C214.275339,54.8661826 214.420324,55.1955394 214.625939,55.4600622 C214.831554,55.7245851 215.105707,55.9216805 215.448399,56.0513485 C215.79109,56.1810166 216.2155,56.2458506 216.721629,56.2458506 Z M221.22934,46.3807054 C221.440227,46.3807054 221.619481,46.3106846 221.767102,46.1706432 C221.914723,46.0306017 221.988533,45.8412863 221.988533,45.6026971 C221.988533,45.3641079 221.914723,45.1747925 221.767102,45.034751 C221.619481,44.8947095 221.440227,44.8246888 221.22934,44.8246888 C221.018453,44.8246888 220.839199,44.8947095 220.691578,45.034751 C220.543957,45.1747925 220.470146,45.3641079 220.470146,45.6026971 C220.470146,45.8412863 220.543957,46.0306017 220.691578,46.1706432 C220.839199,46.3106846 221.018453,46.3807054 221.22934,46.3807054 Z M221.751285,56.0746888 L221.751285,48.030083 L220.723211,48.030083 L220.723211,56.0746888 L221.751285,56.0746888 Z M228.188612,56.2614108 C228.736918,56.2614108 229.237775,56.1602697 229.691182,55.9579876 C230.144589,55.7557054 230.537367,55.473029 230.869514,55.1099585 C231.201661,54.746888 231.459997,54.3060166 231.644524,53.7873444 C231.82905,53.2686722 231.921313,52.6929461 231.921313,52.060166 C231.921313,51.4273859 231.82905,50.8516598 231.644524,50.3329876 C231.459997,49.8143154 231.201661,49.3708506 230.869514,49.0025934 C230.537367,48.6343361 230.144589,48.3490664 229.691182,48.1467842 C229.237775,47.9445021 228.736918,47.843361 228.188612,47.843361 C227.640306,47.843361 227.139449,47.9445021 226.686042,48.1467842 C226.232635,48.3490664 225.839858,48.6343361 225.507711,49.0025934 C225.175563,49.3708506 224.917227,49.8143154 224.732701,50.3329876 C224.548175,50.8516598 224.455911,51.4273859 224.455911,52.060166 C224.455911,52.6929461 224.548175,53.2686722 224.732701,53.7873444 C224.917227,54.3060166 225.175563,54.746888 225.507711,55.1099585 C225.839858,55.473029 226.232635,55.7557054 226.686042,55.9579876 C227.139449,56.1602697 227.640306,56.2614108 228.188612,56.2614108 Z M228.188612,55.343361 C227.376697,55.343361 226.733492,55.0477178 226.258996,54.4564315 C225.7845,53.8651452 225.547252,53.06639 225.547252,52.060166 C225.547252,51.0539419 225.7845,50.2525934 226.258996,49.6561203 C226.733492,49.0596473 227.376697,48.7614108 228.188612,48.7614108 C229.000527,48.7614108 229.643733,49.0596473 230.118229,49.6561203 C230.592724,50.2525934 230.829972,51.0539419 230.829972,52.060166 C230.829972,53.06639 230.592724,53.8651452 230.118229,54.4564315 C229.643733,55.0477178 229.000527,55.343361 228.188612,55.343361 Z M235.654013,56.0746888 L235.654013,49.0103734 C235.759457,48.9688797 235.988797,48.9221992 236.342032,48.870332 C236.695268,48.8184647 237.114406,48.7925311 237.599446,48.7925311 C238.052854,48.7925311 238.429814,48.8469917 238.730328,48.9559129 C239.030842,49.064834 239.273362,49.2437759 239.457888,49.4927386 C239.642415,49.7417012 239.774219,50.063278 239.853302,50.4574689 C239.932384,50.8516598 239.971926,51.3340249 239.971926,51.9045643 L239.971926,51.9045643 L239.971926,56.0746888 L241,56.0746888 L241,51.5778008 C241,51.0280083 240.947278,50.5248963 240.841835,50.0684647 C240.736391,49.6120332 240.559773,49.2204357 240.311981,48.8936722 C240.064189,48.5669087 239.732042,48.3153527 239.31554,48.1390041 C238.899038,47.9626556 238.379728,47.8744813 237.757612,47.8744813 C237.008963,47.8744813 236.376302,47.9263485 235.859628,48.030083 C235.342955,48.1338174 234.931725,48.2271784 234.625939,48.310166 L234.625939,48.310166 L234.625939,56.0746888 L235.654013,56.0746888 Z" id="PoweredbyUBportsFoundation" fill="#FFFFFF" fill-rule="nonzero"></path>
        </g>
        <path d="M400.723036,315.492189 C400.723036,315.492189 391.965484,315.492189 390.389125,315.492189 C386.710953,315.492189 383.207932,316.021641 379.52976,316.374609 C375.851588,316.727576 372.173417,316.90406 368.495245,317.080544 C365.867979,317.080544 363.240713,317.257028 360.613448,317.080544 C351.505594,316.727576 343.448646,314.60977 334.691094,311.962512 C326.458995,309.491737 318.577198,308.962286 310.52025,312.138996 C306.316625,313.72735 302.463302,316.198125 298.259677,317.609996 C295.106958,318.668899 291.779088,319.021867 288.80152,317.609996 C285.648802,316.198125 283.196687,313.550867 280.569422,311.43306 C276.015494,307.903382 270.760963,306.138544 265.15613,308.609318 C259.200994,311.256576 254.471916,319.904286 247.641026,319.374835 C241.160437,318.845383 239.233776,308.785802 232.928338,306.667995 C226.973203,304.550189 221.193218,308.079866 216.814442,311.962512 C214.362328,314.080318 211.910213,316.374609 209.107796,317.962964 C203.678114,320.96319 196.496921,319.551318 194.395109,313.021415 C194.044807,311.786028 193.869656,310.550641 193.519354,309.315253 C192.818749,306.667995 190.892088,304.726673 188.264822,304.197221 C184.761801,303.491285 181.959385,305.785576 179.50727,307.903382 C176.704853,310.374157 174.603041,313.374383 171.975775,315.845157 C170.924869,316.90406 169.698812,317.962964 168.472755,318.845383 C167.246697,319.727802 166.02064,320.433738 164.619432,320.96319 C162.867921,321.492641 160.766109,321.316157 159.014598,320.610222 C155.861879,319.374835 154.635822,316.374609 154.28552,313.021415 C159.3649,307.903382 163.568525,302.079414 167.071546,295.902479 C169.173359,292.019833 175.829098,278.254091 166.195791,278.254091 C158.313994,278.254091 153.935218,292.372801 152.358859,298.196769 C151.307952,301.90293 150.257046,306.667995 150.081895,311.256576 C148.155234,313.197899 146.053421,314.962738 143.951609,316.551093 C137.120718,321.139673 125.385598,323.433964 126.611655,310.727124 C126.611655,310.374157 126.611655,310.197673 126.786806,309.844705 C131.866187,305.785576 136.244963,300.844027 139.572833,295.020059 C142.375249,290.431478 151.658254,275.9598 144.827364,271.194735 C133.267395,263.252961 124.509843,297.137866 122.583181,307.020963 C118.554707,309.844705 113.300176,314.080318 104.717775,313.903834 C105.418379,310.374157 104.892926,306.844479 102.265661,304.903156 C99.6383949,303.138318 96.8359783,303.667769 94.3838637,304.903156 C94.2087126,304.903156 94.0335616,305.07964 93.8584105,305.256124 C93.8584105,305.256124 93.6832595,305.256124 93.6832595,305.432608 C92.6323532,305.96206 91.581447,306.667995 90.5305407,307.373931 C88.9541814,308.432834 87.2026709,309.491737 85.2760095,310.197673 C85.2760095,310.197673 85.2760095,310.197673 85.2760095,310.197673 C82.4735928,311.256576 79.6711761,311.609544 77.0439105,310.197673 C75.4675511,309.491737 74.7669469,307.726899 73.3657386,306.844479 C71.0887751,305.432608 70.2130198,306.844479 69.5124157,308.962286 C68.2863584,312.315479 64.7833375,322.198577 60.2294104,321.845609 C55.5003323,321.492641 58.302749,312.491963 58.6530511,309.844705 C59.1785042,306.315027 59.5288063,302.255898 57.2518427,299.255672 C51.2967073,291.666865 39.9118895,300.844027 35.5331135,305.785576 C33.7816031,307.903382 36.7591708,310.903608 38.5106812,308.785802 C41.1379468,305.785576 51.6470094,296.255446 54.6245771,303.138318 C56.2009365,307.020963 53.7488219,312.668447 53.5736708,316.727576 C53.0482177,324.139899 59.1785042,329.081448 65.6590927,323.786932 C68.9869625,320.96319 71.4390771,316.551093 73.0154365,312.491963 C76.8687594,315.668673 81.4226865,315.668673 85.8014626,314.256802 C85.8014626,314.256802 85.8014626,314.256802 85.8014626,314.256802 C86.6772178,314.080318 87.552973,313.72735 88.2535772,313.374383 C87.7281241,313.550867 87.377822,316.727576 87.2026709,317.433512 C86.6772178,322.198577 90.7056918,326.081222 95.4347699,325.375287 C99.4632439,324.845835 101.915358,321.492641 103.491718,318.139447 C112.24927,318.315931 115.927442,316.198125 121.707426,312.668447 C121.882577,312.668447 121.882577,312.491963 122.057728,312.491963 C122.057728,316.727576 123.634088,320.96319 127.662562,323.25748 C133.617697,326.610674 140.623739,323.25748 145.703119,319.904286 C147.279478,318.845383 148.680687,317.433512 150.257046,316.198125 C151.132801,319.551318 152.884312,322.375061 156.387333,323.963415 C156.737635,324.139899 162.867921,326.610674 169.523661,322.375061 C171.625473,320.96319 173.552135,319.551318 175.303645,317.78648 C175.478796,318.668899 175.653947,319.551318 176.1794,320.257254 C177.75576,323.080996 181.08363,324.669351 184.236348,324.139899 C187.213916,323.610448 190.016333,320.96319 191.767843,317.609996 C194.395109,321.669125 198.949036,324.316383 204.203567,323.610448 C204.203567,323.610448 204.378718,323.610448 204.378718,323.610448 C204.553869,323.610448 204.553869,323.610448 204.72902,323.610448 C209.8084,322.728028 214.187177,319.727802 217.865348,316.198125 C221.718671,312.668447 226.973203,308.079866 232.402885,311.080092 C235.555604,312.844931 237.131963,316.374609 239.408927,319.021867 C242.561645,322.728028 247.115572,324.316383 251.844651,322.728028 C259.551296,320.08077 263.930073,309.315253 273.388229,312.315479 C277.416703,313.72735 280.219119,317.257028 283.546989,319.727802 C287.05001,322.375061 291.253635,323.25748 295.632411,322.551544 C300.711791,321.669125 304.740265,318.845383 309.294192,316.90406 C314.023271,314.962738 319.102651,314.080318 324.182031,314.256802 C332.063828,314.786254 339.420172,317.962964 347.126818,319.727802 C350.629838,320.610222 354.132859,320.96319 357.811031,321.316157 C361.314052,321.492641 364.992224,321.669125 368.495245,321.492641 C372.173417,321.316157 375.676437,321.139673 379.354609,320.786706 C382.85763,320.433738 386.535802,319.904286 390.213974,319.904286 C391.790333,319.904286 400.898187,319.904286 400.898187,319.904286 C402.124245,319.904286 403,319.021867 403,317.78648 C402.824849,316.374609 401.949094,315.492189 400.723036,315.492189 Z M156.668617,298.902965 C157.502925,295.886725 158.504095,293.047911 159.672127,290.386523 C160.506435,288.78969 163.676807,281.337803 166.012871,282.047507 C169.850689,283.112062 161.340744,296.95128 160.172712,298.725539 C158.670957,301.209501 156.835478,303.693464 155,306 C155.500585,303.338612 156.168032,300.85465 156.668617,298.902965 Z M136.935628,277.350918 C138.38081,275.22294 142.174413,271.498978 141.993765,276.464261 C141.813117,281.07488 138.38081,286.394826 136.032389,290.296119 C133.50332,294.729408 130.612955,298.630701 127,302 C129.167773,293.84275 131.87749,284.444179 136.935628,277.350918 Z M94.6678867,320.990793 C90.6566706,320.821155 91.9402597,315.223114 93.5447462,312 C94.0260921,313.526738 95.1492326,314.883839 96.753719,315.901665 C97.3955136,316.24094 98.1977568,316.580215 99,316.91949 C98.0373081,318.955142 96.753719,321.16043 94.6678867,320.990793 Z M101.813953,313.21669 C101.627907,313.56918 101.627907,313.745424 101.44186,313.921669 C101.255814,314.097914 101.069767,313.921669 100.511628,313.921669 C99.9534884,313.745424 98.6511628,313.040445 98.2790698,312.511711 C97.9069767,311.982977 97.9069767,311.277998 98.2790698,310.573019 C98.6511628,309.515551 99.9534884,308.281837 101.255814,309.515551 C102,310.396774 102.186047,312.159222 101.813953,313.21669 Z M188.444813,315.146141 C187.788197,317.24275 186.474965,319.514076 184.505116,320.56238 C184.176808,320.737098 183.8485,320.911815 183.520192,320.911815 C182.20696,321.26125 180.729574,320.56238 180.237111,318.989924 C179.744649,317.417467 180.072957,315.320859 180.729574,313.92312 C181.878652,311.826511 185.325887,307.458577 187.952351,309.555185 C189.593892,310.952924 188.937275,313.398968 188.444813,315.146141 Z" id="Shape" fill="#FFFFFF" fill-rule="nonzero"></path>
    </g>
</svg>